<?xml version="1.0" encoding="UTF-8" standalone="no"?>
<!-- Created with Inkscape (http://www.inkscape.org/) -->

<svg
   width="62.616753mm"
   height="44.985077mm"
   viewBox="0 0 62.616753 44.985077"
   version="1.1"
   id="svg1"
   inkscape:export-filename="sig-logo.svg"
   inkscape:export-xdpi="96"
   inkscape:export-ydpi="96"
   inkscape:version="1.3.2 (091e20e, 2023-11-25, custom)"
   sodipodi:docname="drawing.svg"
   xml:space="preserve"
   xmlns:inkscape="http://www.inkscape.org/namespaces/inkscape"
   xmlns:sodipodi="http://sodipodi.sourceforge.net/DTD/sodipodi-0.dtd"
   xmlns="http://www.w3.org/2000/svg"
   xmlns:svg="http://www.w3.org/2000/svg"><sodipodi:namedview
     id="namedview1"
     pagecolor="#ffffff"
     bordercolor="#000000"
     borderopacity="0.25"
     inkscape:showpageshadow="2"
     inkscape:pageopacity="0.0"
     inkscape:pagecheckerboard="0"
     inkscape:deskcolor="#d1d1d1"
     inkscape:document-units="mm"
     inkscape:zoom="2.768771"
     inkscape:cx="544.10422"
     inkscape:cy="411.19326"
     inkscape:window-width="1920"
     inkscape:window-height="991"
     inkscape:window-x="-9"
     inkscape:window-y="-9"
     inkscape:window-maximized="1"
     inkscape:current-layer="layer1" /><defs
     id="defs1" /><g
     inkscape:label="Layer 1"
     inkscape:groupmode="layer"
     id="layer1"
     transform="translate(-111.65416,-87.841665)"><g
       id="g1"
       inkscape:export-filename="b-logo.svg"
       inkscape:export-xdpi="96"
       inkscape:export-ydpi="96"
       style="fill:#004b6b;fill-opacity:1"><g
         id="g10"
         inkscape:export-filename="sig-logo.svg"
         inkscape:export-xdpi="96"
         inkscape:export-ydpi="96"
         style="fill:#004b6b;fill-opacity:1"><g
           id="g9"
           transform="matrix(0.4415001,0,0,0.4415001,92.632162,60.478603)"
           inkscape:export-filename="sig-logo.svg"
           inkscape:export-xdpi="96"
           inkscape:export-ydpi="96"
           style="fill:#004b6b;fill-opacity:1"><path
             style="fill:#004b6b;fill-opacity:1;stroke-width:0.5"
             d="m 144.03146,105.75418 v -3.74134 h 0.4961 0.49609 v 3.33535 3.33535 l 1.67018,0.0242 c 0.9186,0.0133 1.72114,0.0481 1.78342,0.0773 0.13773,0.0645 0.20747,0.26088 0.15329,0.4316 -0.022,0.0694 -0.091,0.15057 -0.15329,0.18037 -0.0623,0.0298 -1.08806,0.0642 -2.27951,0.0764 l -2.16628,0.0221 z m 5.93646,3.55124 c -0.11367,-0.25996 -0.11455,-5.00203 -0.001,-5.25859 0.0656,-0.14814 0.12323,-0.18191 0.31056,-0.18191 0.20948,0 0.23619,0.0221 0.29892,0.24805 0.0924,0.33263 0.0924,4.79368 0,5.1263 -0.0627,0.22588 -0.0894,0.24805 -0.29892,0.24805 -0.18757,0 -0.24472,-0.0336 -0.30958,-0.1819 z m 3.43161,0.0888 c -0.89952,-0.33465 -1.50828,-1.6657 -1.40844,-3.07955 0.0869,-1.23061 0.51522,-1.98806 1.35709,-2.39993 0.407,-0.19912 0.4891,-0.21516 1.10125,-0.21516 0.60194,0 0.68921,0.0163 0.96985,0.18129 0.44802,0.26337 0.71422,0.50448 0.92643,0.83908 0.2359,0.37199 0.24211,0.57807 0.0204,0.67907 -0.29487,0.13435 -0.62121,-5e-4 -0.90217,-0.37301 -0.13578,-0.17996 -0.34518,-0.37964 -0.46535,-0.44371 -0.24799,-0.13223 -0.81547,-0.15758 -1.19122,-0.0532 -0.55346,0.15371 -0.88186,0.90935 -0.87561,2.01477 0.005,0.76021 0.13579,1.29374 0.43455,1.76327 0.22993,0.36135 0.51743,0.51876 0.94752,0.51876 0.42472,0 0.66075,-0.1349 1.16623,-0.66656 0.37531,-0.39473 0.46703,-0.45792 0.66477,-0.45792 0.42243,0 0.50228,0.25996 0.21369,0.69572 -0.26077,0.39375 -0.55196,0.68437 -0.87941,0.8777 -0.26277,0.15513 -0.37256,0.17524 -1.05834,0.19389 -0.54766,0.0149 -0.83795,-0.006 -1.02129,-0.0745 z m 5.4957,0.0129 c -0.32346,-0.0858 -0.89494,-0.60855 -1.1226,-1.02684 -0.50444,-0.92681 -0.50918,-2.41752 -0.0108,-3.40098 0.19696,-0.38868 0.69172,-0.94292 0.98501,-1.10343 0.2997,-0.16401 1.79925,-0.15693 2.23329,0.0106 0.72042,0.27798 1.43677,1.57605 1.4391,2.60776 l 0.001,0.34726 h -2.05352 -2.05352 l 0.0415,0.24805 c 0.14995,0.8967 0.42361,1.35906 0.96364,1.62817 0.57964,0.28885 1.11231,0.20621 1.83041,-0.28395 0.42381,-0.28929 0.88157,-0.41868 0.97075,-0.27438 0.0259,0.0419 0.009,0.22517 -0.0377,0.4072 -0.10737,0.41892 -0.29007,0.53895 -1.15394,0.75809 -0.68643,0.17413 -1.55423,0.20936 -2.03236,0.0825 z m 2.42228,-3.49173 c 0.1202,-0.12882 0.0517,-0.37972 -0.23485,-0.8599 -0.28115,-0.47116 -0.523,-0.59507 -1.16179,-0.59521 -0.26492,-5e-5 -0.57969,0.0409 -0.69948,0.0909 -0.4202,0.17558 -0.95012,1.03666 -0.79212,1.28715 0.11108,0.17609 0.32866,0.20192 1.59072,0.1888 0.97411,-0.0101 1.22267,-0.0315 1.29752,-0.11174 z m 2.41135,3.38997 c -0.1105,-0.26127 -0.11282,-5.00635 -0.003,-5.25859 0.0644,-0.14722 0.12242,-0.1819 0.30455,-0.1819 0.26658,0 0.3458,0.0803 0.40806,0.41341 0.0255,0.13643 0.0835,0.24805 0.1289,0.24805 0.0454,0 0.21496,-0.11656 0.37681,-0.25903 0.45629,-0.40164 0.81706,-0.56167 1.33187,-0.59076 0.56934,-0.0322 0.93562,0.10032 1.32587,0.4796 0.42065,0.40882 0.45102,0.60191 0.46127,2.93201 0.01,2.2258 -0.011,2.34899 -0.40206,2.38677 -0.18084,0.0175 -0.22514,-0.007 -0.28193,-0.15648 -0.037,-0.0975 -0.0943,-1.02953 -0.1272,-2.07125 -0.0329,-1.04172 -0.0933,-2.00561 -0.1341,-2.14198 -0.16457,-0.54938 -0.54867,-0.74589 -1.31031,-0.67038 -1.00235,0.0994 -1.20572,0.56741 -1.3387,3.08069 -0.071,1.34184 -0.14379,1.82951 -0.28676,1.92112 -0.17124,0.10974 -0.37694,0.0502 -0.45369,-0.13128 z m 6.81228,0.11494 c -0.20823,-0.0331 -0.46124,-0.10329 -0.56224,-0.15604 -0.35441,-0.1851 -0.74588,-0.72594 -0.74588,-1.03048 0,-0.30551 0.84881,-0.0567 1.17918,0.34559 0.1582,0.19266 0.70976,0.3286 1.22361,0.3016 0.88812,-0.0467 1.37926,-0.44614 1.26928,-1.03236 -0.0669,-0.35662 -0.27488,-0.5035 -1.0962,-0.77418 -1.44342,-0.47571 -1.95735,-0.75151 -2.2129,-1.18758 -0.18827,-0.32125 -0.21833,-0.77299 -0.0744,-1.11755 0.14493,-0.34687 0.66278,-0.75422 1.15019,-0.90477 1.01598,-0.3138 2.12018,-0.0566 2.84415,0.66242 0.24646,0.24479 0.26335,0.33197 0.094,0.48522 -0.19414,0.17569 -0.5678,0.1393 -0.81931,-0.0798 -0.36442,-0.31744 -0.64584,-0.42634 -1.18425,-0.45829 -0.59899,-0.0356 -0.9316,0.057 -1.11111,0.30908 -0.21033,0.29538 -0.22948,0.48661 -0.0692,0.69044 0.18738,0.23821 0.52314,0.40495 1.49818,0.74397 0.94594,0.32891 1.44669,0.58635 1.63298,0.83954 0.0921,0.12514 0.14295,0.31741 0.16164,0.61093 0.0587,0.92219 -0.10765,1.27697 -0.74511,1.58885 -0.3139,0.15358 -0.45073,0.17612 -1.20413,0.1984 -0.46748,0.0138 -1.02035,-0.002 -1.22858,-0.035 z m 5.70132,-0.0307 c -0.89452,-0.28729 -1.46695,-1.40072 -1.46188,-2.84351 0.006,-1.63538 0.59672,-2.50144 1.91964,-2.81321 0.80916,-0.19069 1.87398,0.10506 2.31809,0.64384 0.36763,0.446 0.79508,1.82621 0.69235,2.23554 -0.0513,0.20445 -0.18735,0.2204 -2.11019,0.24743 -1.77321,0.0249 -1.81901,0.037 -1.81901,0.48235 0,0.8292 0.73599,1.51112 1.62058,1.5015 0.49354,-0.005 0.68631,-0.0794 1.08727,-0.41748 0.53012,-0.447 1.06278,-0.41075 0.86817,0.0591 -0.11832,0.28565 -0.59604,0.71854 -0.93018,0.84289 -0.41503,0.15446 -1.77618,0.19281 -2.18484,0.0616 z m 2.35282,-3.40899 c 0.15232,-0.0579 0.1699,-0.092 0.12789,-0.24805 -0.0268,-0.0995 -0.0707,-0.29338 -0.0976,-0.43085 -0.0631,-0.32249 -0.21928,-0.49275 -0.62821,-0.68483 -0.75584,-0.35501 -1.73727,-0.11486 -2.06525,0.50535 -0.20354,0.3849 -0.18427,0.72354 0.0478,0.84034 0.20472,0.10303 2.35285,0.11785 2.61538,0.0181 z m -28.64001,-3.51946 c -0.14463,-0.20648 -0.13037,-0.55319 0.0293,-0.71288 0.15854,-0.15855 0.41431,-0.17155 0.55751,-0.0284 0.12472,0.12472 0.14194,0.6915 0.0246,0.80887 -0.13615,0.13615 -0.4966,0.0963 -0.61141,-0.0676 z m -7.97433,-4.38398 v -1.091406 h 1.2237 1.2237 v 1.091406 1.091405 h -1.2237 -1.2237 z m 5.49011,-7.408336 v -8.49974 h -1.52136 -1.52135 v 4.134115 4.134115 h -1.2237 -1.2237 v 1.02377 1.02377 l 1.20716,0.01805 1.20717,0.01805 v 1.091405 1.09141 l -1.20717,0.01805 -1.20716,0.01805 v 1.089915 1.089915 h -1.2237 -1.22369 v -1.09141 -1.091405 h 1.22369 1.2237 v -1.12448 -1.12448 h -1.2237 -1.22369 v -7.573695 -7.5737 h 9.62421 9.62422 v 7.56682 7.566825 l -0.97565,0.04365 c -1.16768,0.05226 -1.32409,0.07779 -1.36427,0.22273 -0.017,0.06114 -0.0508,0.53532 -0.0753,1.05374 l -0.0445,0.942575 h 1.22986 1.22985 v 1.091405 1.09141 h -1.22369 -1.2237 v -1.09141 -1.091405 h -1.22646 -1.22645 l 0.035,-0.479555 c 0.0193,-0.26376 0.0527,-0.737555 0.0744,-1.05288 l 0.0393,-0.573325 0.30871,-0.036 c 0.16979,-0.0198 0.68822,-0.05501 1.15207,-0.07826 l 0.84336,-0.0423 v -0.97864 -0.978645 l -0.51263,-0.03895 c -0.28195,-0.02145 -0.79813,-0.05747 -1.14708,-0.08011 l -0.63445,-0.04115 -0.0434,-1.82847 c -0.0239,-1.005655 -0.0435,-2.575475 -0.0436,-3.488485 -8e-5,-0.91301 -0.0195,-1.932485 -0.0431,-2.265495 l -0.043,-0.605475 h -1.37916 -1.37915 v 8.49974 8.499741 h -1.81901 -1.81901 z m 6.41614,7.408336 v -1.091406 h 1.2237 1.2237 v 1.091406 1.091405 h -1.2237 -1.2237 z m 7.73906,-9.822646 V 77.340439 h 2.41433 2.41432 v 10.914065 10.914061 h -2.41432 -2.41433 z m 15.34584,9.789586 v -1.124481 h -1.09141 -1.0914 v -1.09141 -1.091405 h 1.0914 1.09141 v -1.12448 -1.12448 h -1.16208 -1.16208 l 0.0373,-2.36471 c 0.0205,-1.300595 0.0543,-3.622315 0.0752,-5.159375 l 0.038,-2.794665 h -2.74962 -2.74962 v -2.414325 -2.41432 h 7.8065 7.8065 l -0.0361,1.20716 c -0.10265,3.425915 -0.10624,3.48291 -0.22149,3.51522 -0.0598,0.01675 -1.26215,0.05101 -2.67188,0.07611 l -2.56315,0.04565 v 4.126375 4.12638 h -1.23083 -1.23084 l 0.0425,0.677995 c 0.0233,0.3729 0.0587,0.816015 0.0785,0.984705 l 0.036,0.30671 1.13583,0.05709 1.13584,0.0571 v 1.091405 1.09141 l -1.14101,0.05733 -1.14102,0.05733 v 1.008115 1.008115 l 0.40658,0.0425 c 0.22362,0.02335 0.58824,0.04275 0.81028,0.04305 0.22204,3.15e-4 0.55998,0.01935 0.75098,0.0423 l 0.34726,0.0417 v 1.082196 1.08219 h -1.22369 -1.2237 z"
             id="path1" /><g
             id="g6"
             inkscape:export-filename="logo.svg"
             inkscape:export-xdpi="96"
             inkscape:export-ydpi="96"
             transform="matrix(0.70243818,0,0,0.76601896,12.225684,-0.74323501)"
             style="fill:#004b6b;fill-opacity:1"><text
               xml:space="preserve"
               style="font-size:56.3507px;font-family:'Vladimir Script';-inkscape-font-specification:'Vladimir Script';fill:#004b6b;fill-opacity:1;stroke-width:4.69588"
               x="46.951851"
               y="136.00662"
               id="text1"
               transform="scale(1.183216,0.84515423)"><tspan
                 sodipodi:role="line"
                 id="tspan1"
                 style="font-style:italic;font-variant:normal;font-weight:normal;font-stretch:normal;font-family:'Times New Roman';-inkscape-font-specification:'Times New Roman,  Italic';fill:#004b6b;fill-opacity:1;stroke-width:4.69588"
                 x="46.951851"
                 y="136.00662">f</tspan></text><text
               xml:space="preserve"
               style="font-size:56.3507px;font-family:'Vladimir Script';-inkscape-font-specification:'Vladimir Script';fill:#004b6b;fill-opacity:1;stroke-width:4.69588"
               x="55.614628"
               y="143.64508"
               id="text2"
               transform="scale(1.183216,0.84515423)"><tspan
                 sodipodi:role="line"
                 id="tspan2"
                 style="font-style:normal;font-variant:normal;font-weight:normal;font-stretch:normal;font-family:'Times New Roman';-inkscape-font-specification:'Times New Roman, ';fill:#004b6b;fill-opacity:1;stroke-width:4.69588"
                 x="55.614628"
                 y="143.64508">arm</tspan></text><text
               xml:space="preserve"
               style="font-size:53.3253px;font-family:'Vladimir Script';-inkscape-font-specification:'Vladimir Script';letter-spacing:-0.0125189px;word-spacing:-0.0125189px;fill:#004b6b;fill-opacity:1;stroke-width:4.44376"
               x="85.750671"
               y="163.56284"
               id="text3"
               transform="scale(1.1196898,0.8931045)"><tspan
                 sodipodi:role="line"
                 id="tspan3"
                 style="font-style:normal;font-variant:normal;font-weight:normal;font-stretch:normal;font-family:'Times New Roman';-inkscape-font-specification:'Times New Roman, ';letter-spacing:-0.0125189px;word-spacing:-0.0125189px;fill:#004b6b;fill-opacity:1;stroke-width:4.44376"
                 x="85.750671"
                 y="163.56284"
                 dx="-0.028389316"
                 dy="-0.018926211"
                 rotate="0 0 0 0">vss</tspan></text></g><rect
             style="fill:#004b6b;fill-opacity:1;stroke-width:0.206831"
             id="rect2"
             width="1.1679158"
             height="32.490345"
             x="134.73938"
             y="77.976837" /></g><path
           style="fill:#004b6b;fill-opacity:1;stroke-width:0.140487"
           d="m 130.50872,132.73556 c -0.0502,-0.0502 -0.0912,-0.12622 -0.0912,-0.16896 0,-0.10741 0.16271,-0.26019 0.2771,-0.26019 0.21709,0 0.32403,0.29358 0.16194,0.44459 -0.10874,0.10131 -0.23673,0.0956 -0.3478,-0.0155 z m 2.28768,-0.44774 c 0,-0.6033 0.0458,-0.69905 0.15572,-0.3252 0.12071,0.41072 0.44938,0.67587 0.83978,0.6775 0.38782,0.002 0.64,-0.20139 0.64,-0.5152 0,-0.29362 -0.14074,-0.43798 -0.85587,-0.87787 -0.63245,-0.38905 -0.77963,-0.56907 -0.77963,-0.95359 0,-0.62441 0.64162,-1.01194 1.28238,-0.77453 0.35035,0.1298 0.40552,0.13223 0.49247,0.0217 0.14034,-0.17843 0.15802,-0.12894 0.15802,0.44261 0,0.45431 -0.009,0.53898 -0.0557,0.53898 -0.0329,0 -0.0559,-0.0342 -0.0561,-0.0836 -5.8e-4,-0.13211 -0.16448,-0.44404 -0.30175,-0.57425 -0.4418,-0.41914 -1.15084,-0.23852 -1.09807,0.27972 0.0218,0.21416 0.1347,0.32692 0.62101,0.62032 0.75383,0.45478 0.95334,0.64603 1.04223,0.99904 0.0688,0.27308 -0.007,0.51139 -0.24036,0.75007 -0.31478,0.32279 -0.67616,0.38748 -1.21449,0.21742 -0.32605,-0.103 -0.4618,-0.0971 -0.49949,0.0216 -0.013,0.0408 -0.0475,0.0742 -0.0768,0.0742 -0.0438,0 -0.0533,-0.0959 -0.0533,-0.53897 z m 17.87902,0 c 0,-0.6033 0.0458,-0.69905 0.15572,-0.3252 0.12071,0.41072 0.44938,0.67587 0.83979,0.6775 0.38781,0.002 0.64,-0.20139 0.64,-0.5152 0,-0.29362 -0.14075,-0.43798 -0.85588,-0.87787 -0.63245,-0.38905 -0.77963,-0.56907 -0.77963,-0.95359 0,-0.62441 0.64162,-1.01194 1.28239,-0.77453 0.35035,0.1298 0.40551,0.13223 0.49246,0.0217 0.14035,-0.17843 0.15802,-0.12894 0.15802,0.44261 0,0.45431 -0.009,0.53898 -0.0557,0.53898 -0.0329,0 -0.0559,-0.0342 -0.0561,-0.0836 -5.7e-4,-0.13211 -0.16449,-0.44404 -0.30174,-0.57425 -0.44182,-0.41914 -1.15086,-0.23852 -1.09808,0.27972 0.0218,0.21416 0.13469,0.32692 0.621,0.62032 0.75384,0.45478 0.95335,0.64603 1.04223,0.99904 0.0688,0.27308 -0.007,0.51139 -0.24035,0.75007 -0.31478,0.32279 -0.67616,0.38748 -1.2145,0.21742 -0.32605,-0.103 -0.4618,-0.0971 -0.49949,0.0216 -0.013,0.0408 -0.0475,0.0742 -0.0768,0.0742 -0.0438,0 -0.0532,-0.0959 -0.0532,-0.53897 z m -23.92096,0.42804 c -0.22549,-0.0895 -0.46719,-0.31918 -0.58272,-0.55366 -0.0653,-0.13258 -0.0846,-0.2355 -0.0846,-0.45131 0,-0.24173 0.0167,-0.31362 0.12392,-0.53127 0.33481,-0.68008 1.13423,-0.86124 1.67096,-0.37866 0.25908,0.23293 0.35572,0.44866 0.35813,0.79941 0.002,0.2318 -0.0155,0.31458 -0.10098,0.48931 -0.27378,0.55959 -0.87157,0.82992 -1.38468,0.62618 z m 0.61715,-0.11207 c 0.28185,-0.0783 0.44846,-0.37479 0.45013,-0.80106 0.002,-0.32932 -0.0263,-0.46659 -0.13904,-0.69023 -0.29037,-0.57631 -0.96532,-0.55455 -1.13637,0.0367 -0.16023,0.55377 0.11119,1.33797 0.50232,1.45134 0.15676,0.0454 0.17079,0.0456 0.32296,0.003 z m 11.11697,0.13692 c -0.20539,-0.0776 -0.41656,-0.28262 -0.52071,-0.50557 -0.083,-0.17771 -0.097,-0.25834 -0.0973,-0.56142 -4.2e-4,-0.32587 0.009,-0.37369 0.12266,-0.60384 0.13365,-0.27149 0.27364,-0.40236 0.52537,-0.49118 0.30252,-0.10673 0.62338,-0.0545 0.84161,0.13717 0.16422,0.14419 0.27558,0.35823 0.27558,0.52969 v 0.13158 h -0.72484 -0.72483 v 0.14206 c 0,0.45496 0.3789,0.89871 0.76737,0.89871 0.2049,0 0.42905,-0.12395 0.53515,-0.29593 0.11106,-0.18002 0.1647,-0.19189 0.1325,-0.0293 -0.04,0.20168 -0.21614,0.44546 -0.40739,0.56371 -0.20501,0.12674 -0.51689,0.16302 -0.72517,0.0843 z m 0.66253,-1.64876 c -0.0424,-0.18794 -0.14877,-0.31854 -0.30921,-0.37961 -0.26088,-0.0993 -0.55838,0.0936 -0.63833,0.4139 l -0.0255,0.10222 h 0.50191 0.50192 z m 6.32273,1.62975 c -0.33069,-0.17735 -0.34773,-0.67031 -0.0316,-0.91152 0.13444,-0.10253 0.65493,-0.35299 0.89817,-0.43217 l 0.14412,-0.0469 -0.0197,-0.24525 c -0.0259,-0.32174 -0.12001,-0.41493 -0.41932,-0.41493 -0.25207,0 -0.35105,0.0815 -0.35105,0.28909 0,0.27551 -0.22616,0.41169 -0.35561,0.21412 -0.13474,-0.20565 0.1174,-0.53624 0.46602,-0.61102 0.39099,-0.0838 0.7052,-0.0338 0.90448,0.14415 l 0.11881,0.10609 0.01,0.75583 c 0.006,0.4157 0.0182,0.79346 0.0286,0.83946 0.0246,0.10859 0.17109,0.1117 0.31846,0.006 0.0785,-0.0559 0.10796,-0.063 0.10796,-0.0261 0,0.0584 -0.23957,0.29717 -0.35997,0.3588 -0.197,0.10086 -0.40276,0.007 -0.44182,-0.20098 l -0.0242,-0.12889 -0.14077,0.11149 c -0.31486,0.24938 -0.61802,0.31768 -0.85232,0.19203 z m 0.66772,-0.23411 c 0.0768,-0.023 0.18397,-0.0774 0.23814,-0.12081 0.0974,-0.0781 0.0984,-0.0835 0.0877,-0.49997 l -0.0108,-0.42101 -0.34209,0.17134 c -0.18815,0.0942 -0.37633,0.21484 -0.41817,0.26803 -0.14575,0.18531 -0.0766,0.52684 0.12305,0.6074 0.10957,0.0442 0.16061,0.0434 0.3222,-0.005 z m 10.26076,0.23692 c -0.26824,-0.13678 -0.27926,-0.17762 -0.3,-1.1117 -0.0183,-0.82439 -0.0199,-0.83814 -0.10634,-0.90807 -0.0483,-0.0391 -0.13608,-0.071 -0.19514,-0.071 -0.0591,0 -0.1074,-0.0167 -0.1074,-0.0372 0,-0.0224 0.15488,-0.0371 0.3903,-0.0371 h 0.39028 v 0.8499 c 0,0.79964 0.005,0.85563 0.0759,0.94647 0.14822,0.18843 0.4497,0.16641 0.71493,-0.0522 l 0.13838,-0.11407 v -0.68664 c 0,-0.67946 -8e-4,-0.68759 -0.0912,-0.77787 -0.0502,-0.0502 -0.13382,-0.0912 -0.18585,-0.0912 -0.0521,0 -0.0946,-0.0167 -0.0946,-0.0372 0,-0.0224 0.14868,-0.0372 0.3717,-0.0372 h 0.37171 v 0.86524 c 0,0.98925 0.0147,1.0499 0.24683,1.0228 0.0761,-0.009 0.12108,5.6e-4 0.11337,0.0236 -0.0132,0.0397 -0.60346,0.31202 -0.68544,0.31622 -0.0327,0.002 -0.0464,-0.0706 -0.0464,-0.24462 v -0.247 l -0.20404,0.19297 c -0.31486,0.29778 -0.5431,0.36535 -0.79692,0.23592 z m 6.1416,-0.008 c -0.29589,-0.18041 -0.31755,-0.62899 -0.0425,-0.88031 0.10698,-0.0977 0.52723,-0.30907 0.83986,-0.42231 0.25742,-0.0932 0.2626,-0.10492 0.19707,-0.44455 -0.043,-0.2227 -0.14277,-0.29871 -0.39221,-0.29871 -0.26733,0 -0.35187,0.073 -0.38404,0.33152 -0.0276,0.22195 -0.0904,0.28746 -0.23963,0.25001 -0.18333,-0.046 -0.17486,-0.31625 0.0159,-0.50702 0.21951,-0.21951 0.83319,-0.2924 1.13739,-0.1351 0.23506,0.12156 0.24898,0.17642 0.26954,1.06241 l 0.0186,0.80095 0.10647,0.0122 c 0.0764,0.009 0.13676,-0.0168 0.21372,-0.0906 0.14472,-0.13864 0.14255,-0.0371 -0.003,0.13944 -0.11529,0.13988 -0.31366,0.25493 -0.43954,0.25493 -0.11203,0 -0.23382,-0.11759 -0.26167,-0.25262 l -0.0249,-0.12072 -0.19737,0.14836 c -0.30693,0.23073 -0.59615,0.2848 -0.81372,0.15214 z m 0.8624,-0.31548 0.16727,-0.098 v -0.40731 c 0,-0.46695 0.0103,-0.4569 -0.32061,-0.31115 -0.55527,0.24451 -0.7241,0.59245 -0.41405,0.85334 0.14471,0.12177 0.31568,0.11067 0.56739,-0.0368 z m -42.09561,0.31725 c 0,-0.0187 0.0669,-0.0452 0.14853,-0.059 0.0946,-0.0159 0.17559,-0.0595 0.22302,-0.11978 0.0713,-0.0907 0.0745,-0.15012 0.0745,-1.40423 0,-1.25411 -0.003,-1.31353 -0.0745,-1.40423 -0.0474,-0.0603 -0.12843,-0.10381 -0.22302,-0.11979 -0.0817,-0.0138 -0.14853,-0.0416 -0.14853,-0.0619 0,-0.0236 0.32204,-0.0319 0.90138,-0.0232 0.84206,0.0127 0.91606,0.0193 1.12441,0.10135 0.62104,0.24443 0.80377,0.86908 0.38661,1.32164 -0.2696,0.29248 -0.71733,0.40761 -1.19507,0.30728 l -0.2509,-0.0527 v 0.62725 c 0,0.61482 0.002,0.62905 0.0904,0.71765 0.051,0.051 0.15622,0.10092 0.24161,0.11458 0.33742,0.054 0.11148,0.089 -0.57361,0.089 -0.41187,0 -0.72482,-0.0147 -0.72482,-0.0339 z m 1.64598,-1.65278 c 0.14465,-0.0619 0.30506,-0.22701 0.35886,-0.36941 0.0931,-0.24643 0.007,-0.65614 -0.17031,-0.81392 -0.1691,-0.15016 -0.53319,-0.22189 -0.78447,-0.15455 -0.0827,0.0222 -0.0836,0.03 -0.0836,0.6675 v 0.64509 l 0.1208,0.0349 c 0.18076,0.0522 0.42412,0.048 0.55875,-0.01 z m 1.21614,1.65415 c 0,-0.0179 0.0482,-0.0421 0.10703,-0.0539 0.22197,-0.0444 0.22751,-0.0667 0.22751,-0.91715 0,-0.67348 -0.008,-0.78339 -0.0618,-0.83711 -0.0417,-0.0417 -0.0962,-0.0549 -0.16727,-0.0408 -0.19741,0.0395 -0.10698,-0.0525 0.18022,-0.18346 0.1571,-0.0716 0.32437,-0.13989 0.3717,-0.15177 0.0825,-0.0208 0.0861,-0.0128 0.0861,0.19356 v 0.21516 l 0.13383,-0.15635 c 0.1536,-0.17945 0.30018,-0.26591 0.45078,-0.26591 0.29789,0 0.41543,0.39888 0.13806,0.4685 -0.0666,0.0167 -0.13325,-0.005 -0.23544,-0.0754 -0.16948,-0.11745 -0.27044,-0.0915 -0.40428,0.10379 -0.0783,0.11436 -0.083,0.15855 -0.083,0.79881 0,0.67003 8e-4,0.67879 0.0912,0.76899 0.0569,0.0569 0.1338,0.0912 0.20444,0.0912 0.0622,0 0.1132,0.0167 0.1132,0.0372 0,0.0232 -0.21683,0.0372 -0.57615,0.0372 -0.31687,0 -0.57614,-0.0147 -0.57614,-0.0325 z m 4.4233,-0.005 c 0,-0.0204 0.0342,-0.0372 0.076,-0.0372 0.0418,0 0.11709,-0.0411 0.16727,-0.0912 l 0.0912,-0.0912 v -0.89379 -0.89378 h -0.14869 c -0.12389,0 -0.14867,-0.0124 -0.14867,-0.0743 0,-0.0615 0.0247,-0.0743 0.14328,-0.0743 h 0.1433 l 0.0214,-0.25521 c 0.0364,-0.43389 0.19768,-0.69299 0.52684,-0.84627 0.29617,-0.13792 0.61127,-0.0975 0.82805,0.10613 0.11937,0.11213 0.11587,0.31341 -0.006,0.36914 -0.12316,0.0561 -0.18391,0.0253 -0.31934,-0.16192 -0.19679,-0.27209 -0.39978,-0.31339 -0.55712,-0.11336 -0.0633,0.0804 -0.0738,0.15112 -0.0738,0.49763 v 0.40386 h 0.20444 c 0.17966,0 0.20444,0.009 0.20444,0.0743 0,0.0653 -0.0247,0.0743 -0.20444,0.0743 h -0.20444 v 0.91068 c 0,0.86112 0.004,0.91472 0.0743,0.98502 0.0413,0.0413 0.1239,0.0743 0.18585,0.0743 0.0613,0 0.11151,0.0167 0.11151,0.0371 0,0.0231 -0.21063,0.0372 -0.55756,0.0372 -0.34692,0 -0.55756,-0.014 -0.55756,-0.0372 z m 6.65352,0.008 c 0,-0.0163 0.0541,-0.0455 0.12027,-0.065 0.20825,-0.0616 0.21312,-0.0961 0.21372,-1.5131 5.6e-4,-1.25569 -0.002,-1.29381 -0.0762,-1.36837 -0.0422,-0.0422 -0.11327,-0.0719 -0.15797,-0.0661 -0.18631,0.0244 -0.0853,-0.0674 0.21936,-0.19936 0.17918,-0.0776 0.33956,-0.14112 0.3564,-0.14112 0.0168,0 0.0306,0.37164 0.0306,0.82585 v 0.82584 l 0.17656,-0.1805 c 0.40877,-0.41789 0.85972,-0.41893 1.06865,-0.002 0.065,0.12956 0.0767,0.24557 0.0929,0.92286 0.0182,0.75875 0.0204,0.77613 0.10634,0.84564 0.0483,0.039 0.11935,0.071 0.15797,0.071 0.0386,0 0.0702,0.0167 0.0702,0.0372 0,0.0231 -0.20443,0.0372 -0.53897,0.0372 -0.33454,0 -0.53897,-0.0141 -0.53897,-0.0372 0,-0.0204 0.0386,-0.0372 0.0858,-0.0372 0.23296,0 0.28377,-0.17083 0.285,-0.95833 8e-4,-0.76326 -0.0582,-0.9002 -0.39064,-0.9002 -0.16865,0 -0.34683,0.0819 -0.47968,0.22062 l -0.10125,0.10568 0.0123,0.69512 c 0.012,0.67867 0.0144,0.6968 0.10005,0.76612 0.0483,0.0391 0.12772,0.071 0.17656,0.071 0.0489,0 0.0888,0.0167 0.0888,0.0372 0,0.0231 -0.20443,0.0372 -0.53897,0.0372 -0.29643,0 -0.53897,-0.0133 -0.53897,-0.0295 z m 4.68349,-0.008 c 0,-0.0204 0.0418,-0.0372 0.0929,-0.0372 0.0511,0 0.12637,-0.0335 0.16727,-0.0743 0.0717,-0.0717 0.0743,-0.12389 0.0743,-1.44221 0,-1.01435 -0.0115,-1.37941 -0.0446,-1.41248 -0.0245,-0.0245 -0.10121,-0.0446 -0.17037,-0.0446 -0.0755,0 -0.12027,-0.0164 -0.11202,-0.0412 0.0142,-0.0425 0.60133,-0.29333 0.68672,-0.29333 0.0379,0 0.05,0.22302 0.0579,1.0565 l 0.01,1.05651 0.36241,-0.33527 c 0.36709,-0.3396 0.43826,-0.4639 0.28807,-0.50317 -0.19225,-0.0503 -0.0325,-0.0851 0.39029,-0.0851 0.28497,0 0.46463,0.0144 0.46463,0.0372 0,0.0204 -0.046,0.0376 -0.10222,0.038 -0.1878,0.002 -0.41436,0.14109 -0.74,0.45593 l -0.32287,0.31215 0.35023,0.46105 c 0.44991,0.59226 0.62229,0.76566 0.793,0.79769 0.27885,0.0523 0.1141,0.0911 -0.38701,0.0911 -0.48166,0 -0.63692,-0.0324 -0.44605,-0.0929 0.13579,-0.0431 0.1153,-0.084 -0.35312,-0.70575 l -0.29736,-0.39468 -0.0108,0.47587 c -0.0107,0.472 -0.01,0.47656 0.0857,0.55951 0.0531,0.046 0.13739,0.0836 0.18735,0.0836 0.05,0 0.0909,0.0167 0.0909,0.0372 0,0.0232 -0.21064,0.0372 -0.55756,0.0372 -0.34693,0 -0.55756,-0.014 -0.55756,-0.0372 z m 2.60194,0.008 c 0,-0.0163 0.0541,-0.0455 0.12027,-0.065 0.20824,-0.0616 0.21311,-0.0961 0.21372,-1.5131 5.6e-4,-1.25569 -0.002,-1.29381 -0.0762,-1.36837 -0.0422,-0.0422 -0.11327,-0.0719 -0.15798,-0.0661 -0.1863,0.0244 -0.0853,-0.0674 0.21937,-0.19936 0.17919,-0.0776 0.33956,-0.14112 0.35639,-0.14112 0.0168,0 0.0306,0.37164 0.0306,0.82585 v 0.82584 l 0.17656,-0.1805 c 0.40877,-0.41789 0.85972,-0.41893 1.06865,-0.002 0.065,0.12956 0.0766,0.24557 0.0929,0.92286 0.0182,0.75875 0.0204,0.77613 0.10634,0.84564 0.0483,0.039 0.11936,0.071 0.15797,0.071 0.0386,0 0.0702,0.0167 0.0702,0.0372 0,0.0231 -0.20443,0.0372 -0.53896,0.0372 -0.33454,0 -0.53898,-0.0141 -0.53898,-0.0372 0,-0.0204 0.0386,-0.0372 0.0858,-0.0372 0.23297,0 0.28377,-0.17083 0.285,-0.95833 8e-4,-0.76326 -0.0582,-0.9002 -0.39063,-0.9002 -0.16866,0 -0.34683,0.0819 -0.47969,0.22062 l -0.10125,0.10568 0.0123,0.69512 c 0.012,0.67867 0.0143,0.6968 0.10006,0.76612 0.0483,0.0391 0.12772,0.071 0.17656,0.071 0.0489,0 0.0888,0.0167 0.0888,0.0372 0,0.0231 -0.20444,0.0372 -0.53897,0.0372 -0.29644,0 -0.53898,-0.0133 -0.53898,-0.0295 z m 4.98085,-0.008 c 0,-0.0204 0.0418,-0.0372 0.0929,-0.0372 0.13262,0 0.23238,-0.11747 0.26082,-0.30714 0.0135,-0.0901 0.0189,-0.44395 0.0119,-0.78631 -0.0115,-0.57106 -0.0187,-0.62697 -0.0867,-0.67667 -0.0408,-0.0298 -0.1077,-0.0498 -0.14869,-0.0444 -0.041,0.006 -0.0785,-0.006 -0.0833,-0.0264 -0.009,-0.0354 0.55839,-0.30818 0.65,-0.31268 0.0324,-0.002 0.0464,0.067 0.0464,0.22633 v 0.22859 l 0.11077,-0.15292 c 0.13869,-0.19145 0.25461,-0.26835 0.44254,-0.29356 0.12357,-0.0166 0.16269,-0.004 0.24303,0.076 0.11489,0.1149 0.12198,0.22159 0.0214,0.32216 -0.0985,0.0985 -0.17242,0.0938 -0.33878,-0.0215 -0.16133,-0.11181 -0.23111,-0.092 -0.38454,0.10916 -0.0931,0.12212 -0.0944,0.1331 -0.0944,0.80036 0,0.66875 8e-4,0.6776 0.0912,0.76778 0.0569,0.0569 0.13381,0.0912 0.20444,0.0912 0.0623,0 0.1132,0.0167 0.1132,0.0372 0,0.0231 -0.21682,0.0372 -0.57614,0.0372 -0.35932,0 -0.57615,-0.014 -0.57615,-0.0372 z m 5.61274,0.008 c 0,-0.0163 0.0541,-0.0455 0.12027,-0.065 0.20825,-0.0616 0.21312,-0.0961 0.21372,-1.5131 5.7e-4,-1.25569 -0.002,-1.29381 -0.0762,-1.36837 -0.0422,-0.0422 -0.11327,-0.0719 -0.15797,-0.0661 -0.18631,0.0244 -0.0853,-0.0674 0.21936,-0.19936 0.17918,-0.0776 0.33957,-0.14112 0.3564,-0.14112 0.0168,0 0.0306,0.37164 0.0306,0.82585 v 0.82584 l 0.17656,-0.1805 c 0.40878,-0.41789 0.85973,-0.41893 1.06866,-0.002 0.065,0.12956 0.0767,0.24557 0.0929,0.92286 0.0182,0.75875 0.0204,0.77613 0.10633,0.84564 0.0483,0.039 0.11935,0.071 0.15797,0.071 0.0386,0 0.0702,0.0167 0.0702,0.0372 0,0.0231 -0.20444,0.0372 -0.53898,0.0372 -0.33453,0 -0.53897,-0.0141 -0.53897,-0.0372 0,-0.0204 0.0386,-0.0372 0.0858,-0.0372 0.23296,0 0.28376,-0.17083 0.28499,-0.95833 8e-4,-0.76326 -0.0582,-0.9002 -0.39063,-0.9002 -0.16866,0 -0.34683,0.0819 -0.47969,0.22062 l -0.10124,0.10568 0.0123,0.69512 c 0.012,0.67867 0.0144,0.6968 0.10005,0.76612 0.0483,0.0391 0.12771,0.071 0.17656,0.071 0.0489,0 0.0888,0.0167 0.0888,0.0372 0,0.0231 -0.20444,0.0372 -0.53898,0.0372 -0.29643,0 -0.53897,-0.0133 -0.53897,-0.0295 z m 5.20388,-0.008 c 0,-0.0204 0.04,-0.0372 0.0888,-0.0372 0.0489,0 0.1283,-0.032 0.17656,-0.071 l 0.0877,-0.071 0.0106,-1.31694 c 0.006,-0.82451 -0.003,-1.3539 -0.027,-1.41579 -0.0308,-0.0808 -0.0612,-0.0989 -0.16641,-0.0989 -0.0709,0 -0.1381,-0.015 -0.14943,-0.0333 -0.0187,-0.0302 0.59807,-0.30119 0.68555,-0.30119 0.0235,0 0.0369,0.3828 0.0369,1.05936 0,0.58264 0.0129,1.05935 0.0286,1.05935 0.0157,0 0.19422,-0.16626 0.39668,-0.36948 0.3165,-0.3177 0.36136,-0.37763 0.31999,-0.42747 -0.0264,-0.0319 -0.0711,-0.058 -0.0993,-0.058 -0.0282,0 -0.0512,-0.0167 -0.0512,-0.0371 0,-0.0229 0.18585,-0.0372 0.48321,-0.0372 0.48683,0 0.6375,0.0443 0.30203,0.0888 -0.20956,0.0278 -0.35166,0.12203 -0.73995,0.49062 l -0.27065,0.25692 0.33925,0.44605 c 0.50385,0.66246 0.68844,0.83634 0.88786,0.83634 0.0419,0 0.0762,0.0167 0.0762,0.0372 0,0.0231 -0.20444,0.0372 -0.53898,0.0372 -0.48707,0 -0.66527,-0.0327 -0.46462,-0.0851 0.042,-0.011 0.0743,-0.0507 0.0743,-0.0915 0,-0.0396 -0.16309,-0.28788 -0.36241,-0.55174 l -0.36241,-0.47974 -0.0112,0.3903 c -0.006,0.21465 -0.002,0.44416 0.0108,0.51001 0.0244,0.13317 0.13989,0.23339 0.26887,0.23339 0.0465,0 0.0847,0.0167 0.0847,0.0372 0,0.0231 -0.21063,0.0372 -0.55755,0.0372 -0.34693,0 -0.55757,-0.014 -0.55757,-0.0372 z m 2.60194,0 c 0,-0.0204 0.0418,-0.0372 0.0929,-0.0372 0.13216,0 0.23248,-0.11743 0.2597,-0.30398 0.0129,-0.0884 0.0183,-0.69115 0.0119,-1.33954 -0.0103,-1.06463 -0.0178,-1.18519 -0.0766,-1.24398 -0.0358,-0.0358 -0.1111,-0.0671 -0.16726,-0.0696 -0.0561,-0.002 -0.0977,-0.0197 -0.0923,-0.0384 0.0106,-0.0367 0.5921,-0.30666 0.6686,-0.31042 0.0364,-0.002 0.0464,0.33386 0.0464,1.56057 v 1.56286 l 0.0912,0.0912 c 0.0502,0.0502 0.11709,0.0912 0.14868,0.0912 0.0316,0 0.0574,0.0167 0.0574,0.0372 0,0.023 -0.19824,0.0372 -0.52038,0.0372 -0.32215,0 -0.52039,-0.0142 -0.52039,-0.0372 z m -19.02125,-4.42195 c -0.19535,-0.0887 -0.3071,-0.26207 -0.30729,-0.47675 -2.8e-4,-0.28097 0.16585,-0.51496 0.52549,-0.74028 l 0.17251,-0.10808 -0.0563,-0.12799 c -0.088,-0.20016 -0.0823,-0.56496 0.011,-0.68981 0.12138,-0.16259 0.25504,-0.24407 0.43335,-0.26416 0.31623,-0.0356 0.53606,0.16111 0.50344,0.45059 -0.0223,0.19757 -0.10386,0.31222 -0.33466,0.47027 l -0.17617,0.12065 0.0794,0.13384 c 0.19689,0.33214 0.34955,0.56068 0.37474,0.56098 0.0479,5.6e-4 0.20692,-0.28065 0.25078,-0.44355 0.0352,-0.13074 0.0324,-0.17203 -0.0166,-0.24686 -0.0324,-0.0494 -0.0752,-0.0898 -0.0952,-0.0898 -0.0199,0 -0.0363,-0.0167 -0.0363,-0.0372 0,-0.0223 0.14869,-0.0372 0.3717,-0.0372 0.20445,0 0.37154,0.0126 0.37133,0.0279 -1.4e-4,0.0153 -0.0633,0.0542 -0.14007,0.0865 -0.11117,0.0466 -0.16544,0.10735 -0.26577,0.29736 -0.0694,0.13132 -0.17535,0.31126 -0.23559,0.39987 l -0.10949,0.16111 0.10616,0.11169 c 0.23861,0.25103 0.47587,0.28573 0.65468,0.0958 l 0.11372,-0.12081 -0.027,0.11151 c -0.057,0.23576 -0.27121,0.42704 -0.47848,0.42732 -0.1488,1.4e-4 -0.36163,-0.0975 -0.49644,-0.22802 l -0.11664,-0.11288 -0.15893,0.11513 c -0.17215,0.1247 -0.46401,0.2264 -0.64602,0.22509 -0.0627,-4.1e-4 -0.1848,-0.0329 -0.27126,-0.0721 z m 0.75664,-0.22131 c 0.0844,-0.0383 0.16398,-0.0868 0.17694,-0.10776 0.013,-0.021 -0.0661,-0.172 -0.17562,-0.33566 -0.10954,-0.16365 -0.22047,-0.34897 -0.2465,-0.41181 -0.026,-0.0629 -0.0642,-0.11426 -0.0849,-0.11426 -0.0207,0 -0.10851,0.0711 -0.19524,0.15797 -0.26695,0.26745 -0.25515,0.63619 0.0259,0.80751 0.15263,0.0931 0.30073,0.0943 0.49946,0.004 z m 0.26465,-1.52526 c 0.10455,-0.15513 0.10715,-0.33374 0.006,-0.46141 -0.0761,-0.0967 -0.22676,-0.12973 -0.31698,-0.0695 -0.13356,0.0892 -0.16076,0.34057 -0.0667,0.61656 l 0.0597,0.17504 0.11678,-0.0682 c 0.0642,-0.0376 0.15449,-0.12414 0.20055,-0.1925 z m -21.25212,0.44426 v -0.11152 h 9.55283 9.55282 v 0.11152 0.11151 h -9.55282 -9.55283 z m 23.78914,0 v -0.11152 h 9.57141 9.57141 v 0.11152 0.11151 h -9.57141 -9.57141 z m -19.67918,-3.65891 c -0.32544,-0.80621 -0.63151,-1.51669 -0.68015,-1.57885 -0.0502,-0.0641 -0.15186,-0.13201 -0.23514,-0.15696 -0.0807,-0.0242 -0.14668,-0.0581 -0.14668,-0.0753 0,-0.0172 0.30944,-0.0313 0.68765,-0.0313 0.64985,0 0.86889,0.0359 0.54014,0.0884 -0.16912,0.0271 -0.24279,0.12544 -0.20774,0.27745 0.0464,0.20151 0.8131,2.05314 0.83814,2.02435 0.0431,-0.0496 0.78246,-2.03249 0.78166,-2.09639 -8e-4,-0.078 -0.1057,-0.16637 -0.23307,-0.19662 -0.0562,-0.0134 -0.10222,-0.0407 -0.10222,-0.0608 0,-0.0219 0.19212,-0.0364 0.48322,-0.0364 0.26577,0 0.48322,0.0136 0.48322,0.0303 0,0.0166 -0.0579,0.0579 -0.12875,0.0917 -0.23382,0.1115 -0.25707,0.16272 -1.18936,2.61936 -0.11832,0.31176 -0.23404,0.56684 -0.25717,0.56684 -0.0231,0 -0.30832,-0.65962 -0.63375,-1.46584 z m 13.39736,0.92687 c 0,-0.32756 0.0143,-0.53897 0.0364,-0.53897 0.02,0 0.0476,0.046 0.0611,0.10222 0.04,0.16613 0.18413,0.42942 0.29811,0.54458 0.23264,0.23504 0.66712,0.31817 0.94176,0.18018 0.25489,-0.12806 0.36798,-0.43708 0.24552,-0.67086 -0.0871,-0.1663 -0.2762,-0.32059 -0.78375,-0.63955 -0.26578,-0.16701 -0.52245,-0.33983 -0.57039,-0.38405 -0.30079,-0.27736 -0.32498,-0.80605 -0.0508,-1.10958 0.28939,-0.32032 0.65885,-0.39819 1.13301,-0.23877 0.35589,0.11965 0.38216,0.11989 0.45797,0.004 0.0335,-0.0511 0.0757,-0.0929 0.0938,-0.0929 0.0181,0 0.0329,0.24254 0.0329,0.53898 0,0.29643 -0.0147,0.53897 -0.0327,0.53897 -0.018,0 -0.0508,-0.0711 -0.0728,-0.15797 -0.0573,-0.22611 -0.2378,-0.49126 -0.4138,-0.60773 -0.40519,-0.26815 -0.9675,-0.0786 -0.9675,0.32606 0,0.27521 0.0389,0.31207 0.92926,0.87957 0.57356,0.36558 0.74422,0.59095 0.7426,0.98064 -0.003,0.68501 -0.76223,1.07243 -1.5181,0.77449 -0.258,-0.1017 -0.36102,-0.0978 -0.43596,0.0166 -0.0335,0.0511 -0.0757,0.0929 -0.0938,0.0929 -0.0181,0 -0.0329,-0.24253 -0.0329,-0.53897 z m -10.69402,0.42897 c -0.29588,-0.18042 -0.31755,-0.62901 -0.0425,-0.88032 0.10698,-0.0978 0.52722,-0.30906 0.83986,-0.42231 0.25741,-0.0932 0.2626,-0.10493 0.19706,-0.44454 -0.043,-0.22271 -0.14276,-0.29871 -0.3922,-0.29871 -0.26733,0 -0.35187,0.0729 -0.38404,0.33152 -0.0276,0.22194 -0.0904,0.28746 -0.23963,0.25 -0.18334,-0.0461 -0.17486,-0.31626 0.0159,-0.50702 0.21951,-0.2195 0.8332,-0.2924 1.13739,-0.1351 0.23507,0.12156 0.24899,0.17642 0.26954,1.06241 l 0.0186,0.80095 0.10647,0.0122 c 0.0764,0.009 0.13677,-0.0169 0.21373,-0.0906 0.14471,-0.13864 0.14255,-0.0371 -0.003,0.13944 -0.11531,0.13989 -0.31367,0.25493 -0.43955,0.25493 -0.11202,0 -0.23382,-0.11758 -0.26166,-0.25261 l -0.0249,-0.12073 -0.19736,0.14837 c -0.30694,0.23072 -0.59616,0.2848 -0.81373,0.15213 z m 0.8624,-0.31548 0.16728,-0.098 v -0.4073 c 0,-0.46695 0.0103,-0.4569 -0.32061,-0.31116 -0.55528,0.24451 -0.72411,0.59246 -0.41406,0.85334 0.14471,0.12177 0.31568,0.11067 0.56739,-0.0368 z m 3.62773,0.34131 c -0.0492,-0.0252 -0.12441,-0.0931 -0.16727,-0.15077 -0.0732,-0.0984 -0.0786,-0.15929 -0.0897,-0.99431 l -0.0117,-0.88947 h -0.16484 c -0.21814,0 -0.21668,-0.0741 0.004,-0.20339 0.18098,-0.10607 0.35903,-0.32253 0.43258,-0.52594 0.025,-0.069 0.0588,-0.12559 0.0751,-0.12559 0.0163,0 0.0297,0.15891 0.0297,0.35312 v 0.35312 h 0.26019 c 0.23542,0 0.26019,0.007 0.26019,0.0743 0,0.0674 -0.0247,0.0743 -0.2622,0.0743 h -0.26221 l 0.0113,0.82104 0.0113,0.82104 0.10428,0.0896 c 0.13328,0.11455 0.21528,0.11308 0.35732,-0.006 0.16115,-0.13559 0.20802,-0.0972 0.0877,0.0718 -0.1719,0.24159 -0.46641,0.34505 -0.67585,0.23741 z m 1.63455,-0.0181 c -0.26824,-0.13679 -0.27926,-0.17763 -0.3,-1.1117 -0.0183,-0.8244 -0.0199,-0.83815 -0.10634,-0.90808 -0.0483,-0.0391 -0.13608,-0.071 -0.19515,-0.071 -0.059,0 -0.10739,-0.0167 -0.10739,-0.0372 0,-0.0224 0.15488,-0.0372 0.3903,-0.0372 h 0.39028 v 0.84991 c 0,0.79963 0.005,0.85563 0.0759,0.94646 0.14822,0.18843 0.4497,0.16642 0.71493,-0.0522 l 0.13838,-0.11408 v -0.68663 c 0,-0.67946 -8e-4,-0.68759 -0.0912,-0.77788 -0.0502,-0.0502 -0.13382,-0.0912 -0.18585,-0.0912 -0.0521,0 -0.0946,-0.0167 -0.0946,-0.0372 0,-0.0223 0.14868,-0.0371 0.3717,-0.0371 h 0.37171 v 0.86523 c 0,0.98926 0.0147,1.04991 0.24683,1.0228 0.0761,-0.009 0.12108,5.6e-4 0.11337,0.0236 -0.0132,0.0397 -0.60346,0.31202 -0.68544,0.31622 -0.0327,0.002 -0.0464,-0.0706 -0.0464,-0.24463 v -0.247 l -0.20404,0.19298 c -0.31486,0.29778 -0.5431,0.36535 -0.79692,0.23592 z m 13.77242,0.0334 c -0.0121,-0.0196 -0.18799,-0.43962 -0.39083,-0.93338 -0.40536,-0.98669 -0.44273,-1.05814 -0.60052,-1.1479 -0.0594,-0.0338 -0.10819,-0.0741 -0.10832,-0.0894 -1.3e-4,-0.0153 0.21721,-0.0279 0.48298,-0.0279 0.26577,0 0.48322,0.0131 0.48322,0.029 0,0.0159 -0.0502,0.048 -0.11151,0.0711 -0.0931,0.0352 -0.11157,0.0626 -0.11186,0.16613 -2.8e-4,0.11968 0.47024,1.33267 0.51655,1.3315 0.046,-8.1e-4 0.57234,-1.36785 0.54957,-1.4272 -0.0128,-0.0333 -0.0738,-0.0706 -0.13563,-0.083 -0.21893,-0.0438 -0.10791,-0.0875 0.22214,-0.0875 0.19825,0 0.33453,0.0151 0.33453,0.0371 0,0.0204 -0.0225,0.0372 -0.05,0.0372 -0.10154,0 -0.18131,0.15713 -0.57604,1.1345 -0.22192,0.54948 -0.42121,1.00497 -0.44288,1.01219 -0.0217,0.007 -0.0493,-0.003 -0.0614,-0.0225 z m 1.62464,-0.0412 c -0.29589,-0.18042 -0.31755,-0.62901 -0.0425,-0.88032 0.107,-0.0977 0.52723,-0.30906 0.83988,-0.42231 0.25741,-0.0932 0.26259,-0.10493 0.19706,-0.44454 -0.043,-0.22271 -0.14277,-0.29871 -0.39221,-0.29871 -0.26732,0 -0.35186,0.073 -0.38404,0.33152 -0.0276,0.22194 -0.0904,0.28746 -0.23963,0.25 -0.18334,-0.0461 -0.17486,-0.31626 0.0159,-0.50702 0.21951,-0.2195 0.83319,-0.2924 1.13739,-0.1351 0.23506,0.12156 0.24898,0.17642 0.26953,1.06241 l 0.0186,0.80095 0.10648,0.0122 c 0.0764,0.009 0.13676,-0.0169 0.21373,-0.0906 0.1447,-0.13864 0.14255,-0.0371 -0.003,0.13944 -0.11531,0.13989 -0.31367,0.25493 -0.43955,0.25493 -0.11202,0 -0.23382,-0.11758 -0.26167,-0.25261 l -0.0249,-0.12073 -0.19737,0.14837 c -0.30693,0.23072 -0.59615,0.2848 -0.81372,0.15213 z m 0.8624,-0.31548 0.16728,-0.098 v -0.4073 c 0,-0.46696 0.0103,-0.4569 -0.32062,-0.31116 -0.55527,0.24451 -0.7241,0.59246 -0.41405,0.85334 0.14471,0.12177 0.31568,0.11067 0.56739,-0.0368 z m 1.57046,0.36075 -0.2509,-0.013 v -0.37001 c 0,-0.2035 0.0141,-0.37001 0.0313,-0.37001 0.0172,0 0.0511,0.0662 0.0754,0.14701 0.12608,0.42079 0.60795,0.63096 0.86268,0.37624 0.0649,-0.0649 0.10864,-0.14794 0.10864,-0.20629 0,-0.1882 -0.0957,-0.29564 -0.43235,-0.48554 -0.17995,-0.1015 -0.39883,-0.25343 -0.48639,-0.33762 -0.15084,-0.14505 -0.1592,-0.16417 -0.1592,-0.36426 0,-0.25311 0.0675,-0.39798 0.23142,-0.49649 0.18263,-0.10978 0.309,-0.1281 0.68773,-0.0997 l 0.34465,0.0259 v 0.33011 c 0,0.24511 -0.0124,0.33011 -0.048,0.33011 -0.0264,0 -0.0676,-0.073 -0.0914,-0.16207 -0.0644,-0.24067 -0.2557,-0.39549 -0.48874,-0.39549 -0.23924,0 -0.37542,0.10272 -0.37542,0.28317 0,0.16934 0.0901,0.25579 0.48148,0.46204 0.1727,0.091 0.38444,0.23238 0.47052,0.31415 0.44434,0.42211 0.0914,1.08295 -0.56172,1.05187 -0.0818,-0.004 -0.26158,-0.0129 -0.39958,-0.0201 z m 2.05726,-0.0195 c -0.0492,-0.0252 -0.12441,-0.0931 -0.16727,-0.15077 -0.0732,-0.0984 -0.0786,-0.15928 -0.0896,-0.9943 l -0.0117,-0.88947 h -0.16484 c -0.21813,0 -0.21667,-0.0741 0.004,-0.20339 0.18099,-0.10607 0.35903,-0.32254 0.43258,-0.52594 0.025,-0.069 0.0588,-0.1256 0.0751,-0.1256 0.0163,0 0.0297,0.15891 0.0297,0.35312 v 0.35312 h 0.26019 c 0.23542,0 0.2602,0.007 0.2602,0.0743 0,0.0673 -0.0247,0.0743 -0.26221,0.0743 h -0.26221 l 0.0113,0.82104 0.0113,0.82104 0.10429,0.0896 c 0.13328,0.11456 0.21527,0.11308 0.35731,-0.006 0.16115,-0.1356 0.20802,-0.0972 0.0877,0.0718 -0.17189,0.2416 -0.4664,0.34505 -0.67585,0.23741 z m 1.27131,-0.0259 c -0.29589,-0.18042 -0.31755,-0.629 -0.0425,-0.88031 0.10698,-0.0978 0.52723,-0.30907 0.83987,-0.42232 0.25742,-0.0932 0.26259,-0.10492 0.19706,-0.44454 -0.043,-0.2227 -0.14277,-0.29871 -0.3922,-0.29871 -0.26733,0 -0.35187,0.073 -0.38405,0.33152 -0.0276,0.22194 -0.0904,0.28746 -0.23963,0.25 -0.18333,-0.046 -0.17485,-0.31625 0.0159,-0.50701 0.21951,-0.21951 0.83319,-0.29241 1.13739,-0.1351 0.23506,0.12156 0.24898,0.17641 0.26954,1.06241 l 0.0186,0.80095 0.10647,0.0122 c 0.0764,0.009 0.13677,-0.0169 0.21373,-0.0906 0.14471,-0.13864 0.14255,-0.0371 -0.003,0.13944 -0.1153,0.13988 -0.31366,0.25492 -0.43955,0.25492 -0.11202,0 -0.23382,-0.11758 -0.26167,-0.25261 l -0.0249,-0.12072 -0.19738,0.14836 c -0.30693,0.23072 -0.59615,0.2848 -0.81372,0.15213 z m 0.86241,-0.31548 0.16727,-0.098 v -0.4073 c 0,-0.46695 0.0103,-0.4569 -0.32062,-0.31116 -0.55527,0.24451 -0.7241,0.59246 -0.41405,0.85335 0.14471,0.12176 0.31568,0.11067 0.5674,-0.0368 z m 2.23361,0.35661 c -0.0121,-0.0196 -0.18799,-0.43961 -0.39083,-0.93338 -0.40535,-0.98669 -0.44273,-1.05814 -0.60051,-1.1479 -0.0594,-0.0338 -0.1082,-0.0741 -0.10833,-0.0894 -1.3e-4,-0.0153 0.21721,-0.0279 0.48298,-0.0279 0.26577,0 0.48321,0.0131 0.48321,0.029 0,0.0159 -0.0502,0.048 -0.1115,0.0711 -0.0931,0.0352 -0.11158,0.0626 -0.11186,0.16613 -2.8e-4,0.11968 0.47025,1.33267 0.51655,1.3315 0.0461,-8e-4 0.57233,-1.36785 0.54956,-1.42719 -0.0128,-0.0333 -0.0738,-0.0706 -0.13562,-0.083 -0.21892,-0.0438 -0.1079,-0.0875 0.22214,-0.0875 0.19825,0 0.33453,0.0151 0.33453,0.0372 0,0.0204 -0.0225,0.0371 -0.05,0.0371 -0.10154,0 -0.18133,0.15714 -0.57605,1.1345 -0.22192,0.54948 -0.42121,1.00497 -0.44288,1.0122 -0.0217,0.007 -0.0493,-0.003 -0.0614,-0.0225 z m 1.653,-0.0362 c -0.33069,-0.17736 -0.34773,-0.67032 -0.0315,-0.91152 0.13443,-0.10254 0.65493,-0.35299 0.89817,-0.43218 l 0.14411,-0.0469 -0.0197,-0.24525 c -0.0259,-0.32173 -0.12001,-0.41492 -0.41931,-0.41492 -0.25207,0 -0.35105,0.0815 -0.35105,0.28909 0,0.2755 -0.22616,0.41168 -0.35561,0.21412 -0.13475,-0.20566 0.1174,-0.53625 0.46602,-0.61102 0.39099,-0.0838 0.7052,-0.0338 0.90447,0.14415 l 0.11882,0.10608 0.01,0.75583 c 0.006,0.41571 0.0182,0.79347 0.0286,0.83947 0.0246,0.10858 0.17109,0.1117 0.31846,0.006 0.0785,-0.0559 0.10795,-0.063 0.10795,-0.0261 0,0.0584 -0.23957,0.29716 -0.35996,0.35879 -0.197,0.10086 -0.40276,0.007 -0.44182,-0.20097 l -0.0242,-0.1289 -0.14078,0.1115 c -0.31485,0.24937 -0.61801,0.31768 -0.85231,0.19202 z m 0.66772,-0.23412 c 0.0768,-0.023 0.18398,-0.0774 0.23815,-0.12081 0.0974,-0.0781 0.0984,-0.0835 0.0877,-0.49996 l -0.0108,-0.42101 -0.34209,0.17133 c -0.18815,0.0942 -0.37633,0.21485 -0.41817,0.26805 -0.14576,0.18529 -0.0766,0.52682 0.12304,0.60738 0.10957,0.0442 0.16061,0.0434 0.3222,-0.005 z m -30.62946,0.23234 c 0,-0.0179 0.0482,-0.0421 0.10703,-0.0539 0.22197,-0.0444 0.22751,-0.0667 0.22751,-0.91715 0,-0.67347 -0.008,-0.78339 -0.0618,-0.83711 -0.0417,-0.0417 -0.0962,-0.0549 -0.16727,-0.0408 -0.19741,0.0395 -0.10698,-0.0525 0.18022,-0.18346 0.15711,-0.0716 0.32438,-0.13989 0.37171,-0.15176 0.0825,-0.0207 0.0861,-0.0128 0.0861,0.19355 v 0.21516 l 0.13383,-0.15634 c 0.1536,-0.17946 0.30018,-0.26591 0.45078,-0.26591 0.29789,0 0.41543,0.39888 0.13806,0.46849 -0.0666,0.0167 -0.13324,-0.005 -0.23544,-0.0754 -0.16948,-0.11745 -0.27044,-0.0915 -0.40428,0.10379 -0.0783,0.11436 -0.083,0.15855 -0.083,0.79881 0,0.67003 8e-4,0.6788 0.0912,0.76899 0.0569,0.0569 0.13381,0.0912 0.20444,0.0912 0.0622,0 0.1132,0.0167 0.1132,0.0372 0,0.0231 -0.21683,0.0372 -0.57615,0.0372 -0.31687,0 -0.57614,-0.0147 -0.57614,-0.0325 z m 5.98446,-0.005 c 0,-0.0204 0.0418,-0.0372 0.0929,-0.0372 0.0511,0 0.12638,-0.0335 0.16726,-0.0743 0.0716,-0.0716 0.0743,-0.1239 0.0743,-1.43021 v -1.35586 l -0.0911,-0.0597 c -0.0537,-0.0352 -0.12244,-0.0497 -0.16727,-0.0355 -0.045,0.0143 -0.0762,0.007 -0.0762,-0.0164 0,-0.04 0.4902,-0.28061 0.65735,-0.32257 l 0.0861,-0.0216 v 1.54419 c 0,0.92223 0.0147,1.58291 0.0365,1.64034 0.0244,0.0643 0.0738,0.10359 0.14868,0.11857 0.25322,0.0506 0.0813,0.0875 -0.40826,0.0875 -0.32214,0 -0.52039,-0.0142 -0.52039,-0.0372 z m 5.09236,0.008 c 0,-0.0163 0.0541,-0.0455 0.12027,-0.065 0.21185,-0.0626 0.21559,-0.0906 0.20517,-1.53471 -0.009,-1.26439 -0.0123,-1.31534 -0.0838,-1.36832 -0.0452,-0.0335 -0.11551,-0.047 -0.17954,-0.0344 -0.19941,0.039 -0.0824,-0.0623 0.23725,-0.20539 0.1727,-0.0773 0.3349,-0.14156 0.36046,-0.14282 0.0359,-0.002 0.0464,0.18519 0.0464,0.81725 v 0.81951 l 0.18374,-0.18373 c 0.3979,-0.3979 0.83961,-0.39614 1.05054,0.004 0.0758,0.1439 0.0846,0.22407 0.10269,0.93211 0.0193,0.75807 0.0216,0.77619 0.10751,0.84562 0.0483,0.039 0.11934,0.071 0.15797,0.071 0.0386,0 0.0702,0.0167 0.0702,0.0372 0,0.0231 -0.20444,0.0372 -0.53898,0.0372 -0.33453,0 -0.53897,-0.0141 -0.53897,-0.0372 0,-0.0204 0.0418,-0.0372 0.0929,-0.0372 0.0511,0 0.12638,-0.0335 0.16727,-0.0743 0.0694,-0.0694 0.0743,-0.1239 0.0743,-0.83127 v -0.75693 l -0.098,-0.098 c -0.14085,-0.14085 -0.39372,-0.13773 -0.59338,0.007 -0.25057,0.18204 -0.2437,0.15473 -0.23092,0.91755 0.0114,0.67758 0.0137,0.69535 0.0994,0.76467 0.0483,0.039 0.12771,0.071 0.17656,0.071 0.0488,0 0.0888,0.0167 0.0888,0.0372 0,0.0231 -0.20444,0.0372 -0.53897,0.0372 -0.29644,0 -0.53898,-0.0133 -0.53898,-0.0295 z m 2.60194,-0.008 c 0,-0.0204 0.0418,-0.0372 0.0929,-0.0372 0.13262,0 0.23238,-0.11747 0.26082,-0.30714 0.0135,-0.0901 0.0189,-0.44394 0.0119,-0.78631 -0.0115,-0.57106 -0.0187,-0.62696 -0.0867,-0.67666 -0.0408,-0.0298 -0.10769,-0.0498 -0.14868,-0.0444 -0.041,0.006 -0.0785,-0.006 -0.0833,-0.0264 -0.009,-0.0354 0.55839,-0.30817 0.65001,-0.31267 0.0323,-0.002 0.0464,0.067 0.0464,0.22632 v 0.2286 l 0.11078,-0.15292 c 0.13869,-0.19146 0.2546,-0.26835 0.44254,-0.29356 0.12357,-0.0166 0.16269,-0.004 0.24303,0.076 0.11488,0.11489 0.12198,0.22159 0.0214,0.32216 -0.0985,0.0985 -0.17241,0.0938 -0.33878,-0.0215 -0.16133,-0.1118 -0.2311,-0.092 -0.38454,0.10917 -0.0931,0.12211 -0.0944,0.13309 -0.0944,0.80036 0,0.66874 8e-4,0.67759 0.0912,0.76777 0.0569,0.0569 0.1338,0.0912 0.20444,0.0912 0.0622,0 0.11319,0.0167 0.11319,0.0372 0,0.0231 -0.21682,0.0372 -0.57614,0.0372 -0.35931,0 -0.57614,-0.014 -0.57614,-0.0372 z m 1.82136,0.008 c 0,-0.0163 0.0541,-0.0455 0.12027,-0.065 0.068,-0.0201 0.14045,-0.076 0.16671,-0.12849 0.0612,-0.12242 0.066,-1.44286 0.006,-1.57514 -0.0428,-0.0939 -0.18977,-0.15676 -0.26207,-0.11208 -0.0234,0.0145 -0.0332,0.004 -0.0234,-0.0257 0.0159,-0.0479 0.55343,-0.28884 0.65256,-0.29255 0.036,-0.002 0.0464,0.20821 0.0464,0.92872 0,1.05484 0.0214,1.1721 0.22137,1.21209 0.2542,0.0509 0.0831,0.0877 -0.40723,0.0877 -0.28621,0 -0.52038,-0.0133 -0.52038,-0.0295 z m 0.33723,-2.96775 c -0.0424,-0.0539 -0.077,-0.11852 -0.077,-0.14367 0,-0.0846 0.15336,-0.24162 0.23604,-0.24162 0.14246,0 0.24717,0.10236 0.24717,0.24162 0,0.23052 -0.26431,0.32401 -0.40617,0.14367 z m -19.36855,-1.31454 v -0.11151 h 15.03548 15.03548 v 0.11151 0.11151 h -15.03548 -15.03548 z m 14.62795,-1.35509 c -0.32575,-0.0882 -0.50273,-0.36353 -0.50273,-0.78222 0,-0.43386 0.1958,-0.71834 0.54604,-0.79336 0.37841,-0.0811 0.71112,0.0496 0.85924,0.33743 0.12284,0.2387 0.12624,0.65524 0.007,0.90083 -0.14478,0.29906 -0.52732,0.44088 -0.90991,0.33732 z m 0.50771,-0.3504 c 0.10953,-0.0979 0.1212,-0.12969 0.13461,-0.36709 0.0236,-0.41609 -0.10711,-0.6037 -0.42032,-0.6037 -0.2656,0 -0.42373,0.29316 -0.36976,0.68554 0.0513,0.37305 0.39151,0.5211 0.65547,0.28525 z m -13.50015,-0.42704 v -0.80394 h 0.31807 c 0.42541,0 0.62471,0.0548 0.79736,0.2192 0.34752,0.33092 0.27351,1.01429 -0.13582,1.25417 -0.15215,0.0892 -0.22102,0.10326 -0.57621,0.11789 l -0.4034,0.0166 z m 0.79672,0.43946 c 0.11993,-0.0786 0.18621,-0.25564 0.18285,-0.48842 -0.005,-0.31932 -0.14071,-0.46028 -0.45426,-0.47056 l -0.17219,-0.006 -0.0103,0.51109 -0.0103,0.5111 h 0.18821 c 0.10733,0 0.22596,-0.0247 0.27607,-0.0576 z m 1.99107,-0.44424 v -0.79916 h 0.46463 0.46463 v 0.12854 0.12852 l -0.28807,0.0109 -0.28807,0.0109 v 0.16727 0.16727 l 0.26949,0.0109 0.26948,0.0109 v 0.12846 0.12847 h -0.27878 -0.27878 v 0.20288 0.20287 l 0.28808,0.0109 0.28807,0.0108 0.0115,0.1394 0.0115,0.13939 h -0.46688 -0.46687 z m 2.46457,-0.002 -0.2664,-0.8011 0.17081,0.0112 0.17081,0.0112 0.15426,0.50181 c 0.0848,0.27599 0.171,0.56035 0.19144,0.6319 l 0.0371,0.1301 0.0456,-0.18586 c 0.0251,-0.10222 0.10966,-0.38657 0.18798,-0.6319 l 0.1424,-0.44605 0.16949,-0.0112 0.16949,-0.0112 -0.26639,0.8011 -0.2664,0.8011 h -0.18692 -0.18692 z m 2.51628,0.002 v -0.79916 h 0.44604 0.44605 v 0.1301 0.13009 h -0.27878 -0.27877 v 0.18585 0.18586 h 0.26019 0.2602 v 0.1301 0.13009 h -0.2602 -0.26019 v 0.20444 0.20443 h 0.27877 0.27878 v 0.14869 0.14868 h -0.44605 -0.44604 z m 2.37891,0 v -0.79916 h 0.16727 0.16727 v 0.64904 0.64903 l 0.32524,0.0107 0.32524,0.0107 0.0115,0.13939 0.0115,0.13938 h -0.50404 -0.50405 z m 5.31539,0 v -0.79916 h 0.33573 c 0.37767,0 0.53996,0.0503 0.66163,0.20494 0.0982,0.12488 0.1093,0.41228 0.0223,0.58041 -0.0714,0.13821 -0.31017,0.25349 -0.52722,0.25461 l -0.15798,8e-4 v 0.27878 0.27877 h -0.16726 -0.16727 z m 0.58226,-0.0581 c 0.12889,-0.049 0.15985,-0.0961 0.16058,-0.24403 7e-4,-0.14359 -0.0641,-0.20049 -0.25817,-0.22651 l -0.15014,-0.0201 v 0.26509 c 0,0.29183 0.0216,0.31155 0.24773,0.22559 z m 1.94534,0.0581 v -0.79916 h 0.46463 0.46462 v 0.1301 0.13009 h -0.29735 -0.29737 v 0.18585 0.18586 h 0.27878 0.27878 v 0.1301 0.13009 h -0.27878 -0.27878 v 0.20288 0.20287 l 0.28807,0.0108 0.28808,0.0109 0.0115,0.1394 0.0115,0.13938 h -0.46688 -0.46687 z m 2.37891,1.1e-4 v -0.80749 l 0.39958,0.0142 c 0.49031,0.0174 0.67877,0.10099 0.8254,0.36624 0.13532,0.2448 0.13175,0.62267 -0.008,0.8614 -0.14898,0.25422 -0.34928,0.34017 -0.83583,0.35869 l -0.381,0.0145 z m 0.77519,0.44873 c 0.13444,-0.0695 0.19124,-0.20264 0.19124,-0.44817 0,-0.36518 -0.10215,-0.48726 -0.44134,-0.52742 l -0.19056,-0.0226 v 0.52557 0.52556 h 0.16912 c 0.093,0 0.2152,-0.0239 0.27154,-0.0529 z m 3.75961,-0.44884 v -0.79916 l 0.30666,2.1e-4 c 0.37857,2.5e-4 0.5594,0.0479 0.65808,0.17335 0.13961,0.17748 0.073,0.46781 -0.1275,0.55514 -0.0625,0.0272 -0.0848,0.0496 -0.0502,0.0504 0.0342,8e-4 0.11366,0.0448 0.17656,0.0977 0.0983,0.0827 0.11437,0.12116 0.11437,0.27377 0,0.34021 -0.17992,0.44719 -0.75271,0.44755 l -0.32524,2.1e-4 z m 0.82439,0.54001 c 0.10211,-0.12611 0.0882,-0.31408 -0.0302,-0.40721 -0.0775,-0.061 -0.15125,-0.077 -0.35312,-0.077 h -0.25519 v 0.30225 0.30225 l 0.28542,-0.0183 c 0.2383,-0.0153 0.29659,-0.0321 0.35312,-0.10194 z m -0.0465,-0.72339 c 0.10006,-0.0905 0.10197,-0.28436 0.004,-0.37331 -0.0501,-0.0453 -0.15636,-0.0723 -0.33455,-0.0851 l -0.26115,-0.0187 v 0.28798 0.28796 l 0.25747,-0.0146 c 0.18457,-0.0104 0.27928,-0.0343 0.33453,-0.0843 z m 2.12145,0.68405 v -0.29851 l -0.26019,-0.47836 c -0.14311,-0.2631 -0.26019,-0.48839 -0.26019,-0.50066 0,-0.0123 0.0406,-0.0223 0.0901,-0.0223 0.0771,0 0.11876,0.0564 0.28808,0.39012 0.10886,0.21457 0.20637,0.3902 0.2167,0.3903 0.0103,8e-5 0.11067,-0.17523 0.22301,-0.38959 0.18018,-0.34379 0.2158,-0.38981 0.30211,-0.39029 0.0974,-5.4e-4 0.0966,0.002 -0.15763,0.47338 l -0.25546,0.47393 -2.9e-4,0.32524 c -2.8e-4,0.32205 -0.002,0.32524 -0.0933,0.32524 -0.0914,0 -0.0929,-0.005 -0.0929,-0.2985 z"
           id="path8" /></g></g></g></svg>
